<svg xmlns="http://www.w3.org/2000/svg" xmlns:xlink="http://www.w3.org/1999/xlink" width="500" zoomAndPan="magnify" viewBox="0 0 375 374.999991" height="500" preserveAspectRatio="xMidYMid meet" version="1.0"><defs><g/><clipPath id="e7f005e64b"><path d="M 48 0 L 327 0 C 353.507812 0 375 21.492188 375 48 L 375 327 C 375 353.507812 353.507812 375 327 375 L 48 375 C 21.492188 375 0 353.507812 0 327 L 0 48 C 0 21.492188 21.492188 0 48 0 Z M 48 0 " clip-rule="nonzero"/></clipPath></defs><g clip-path="url(#e7f005e64b)"><rect x="-37.5" width="450" fill="#141414" y="-37.499999" height="449.999989" fill-opacity="1"/></g><g fill="#ffffff" fill-opacity="1"><g transform="translate(5.029411, 275.624982)"><g><path d="M 15.34375 0 L 15.34375 -176.5 L 52.046875 -176.5 L 52.046875 -110.140625 L 53.171875 -110.140625 C 54.835938 -113.753906 57.191406 -117.398438 60.234375 -121.078125 C 63.285156 -124.753906 67.304688 -127.84375 72.296875 -130.34375 C 77.296875 -132.84375 83.472656 -134.09375 90.828125 -134.09375 C 100.546875 -134.09375 109.453125 -131.578125 117.546875 -126.546875 C 125.648438 -121.523438 132.15625 -113.972656 137.0625 -103.890625 C 141.976562 -93.804688 144.4375 -81.179688 144.4375 -66.015625 C 144.4375 -51.242188 142.050781 -38.785156 137.28125 -28.640625 C 132.519531 -18.503906 126.085938 -10.835938 117.984375 -5.640625 C 109.878906 -0.441406 100.800781 2.15625 90.75 2.15625 C 83.625 2.15625 77.578125 0.976562 72.609375 -1.375 C 67.640625 -3.726562 63.585938 -6.703125 60.453125 -10.296875 C 57.328125 -13.890625 54.898438 -17.523438 53.171875 -21.203125 L 51.53125 -21.203125 L 51.53125 0 Z M 51.28125 -66.1875 C 51.28125 -54.40625 53.707031 -44.9375 58.5625 -37.78125 C 63.414062 -30.632812 70.265625 -27.0625 79.109375 -27.0625 C 88.128906 -27.0625 95.023438 -30.691406 99.796875 -37.953125 C 104.566406 -45.222656 106.953125 -54.632812 106.953125 -66.1875 C 106.953125 -77.675781 104.582031 -87 99.84375 -94.15625 C 95.101562 -101.3125 88.191406 -104.890625 79.109375 -104.890625 C 70.203125 -104.890625 63.335938 -101.394531 58.515625 -94.40625 C 53.691406 -87.425781 51.28125 -78.019531 51.28125 -66.1875 Z M 51.28125 -66.1875 "/></g></g></g><g fill="#ffffff" fill-opacity="1"><g transform="translate(149.013606, 275.624982)"><g><path d="M 111.09375 -125.734375 C 110.394531 -132.691406 107.414062 -138.09375 102.15625 -141.9375 C 96.90625 -145.789062 89.828125 -147.71875 80.921875 -147.71875 C 71.785156 -147.71875 64.773438 -145.847656 59.890625 -142.109375 C 55.015625 -138.378906 52.578125 -133.671875 52.578125 -127.984375 C 52.460938 -121.660156 55.175781 -116.875 60.71875 -113.625 C 66.257812 -110.382812 72.851562 -107.875 80.5 -106.09375 L 96.34375 -102.296875 C 106.570312 -99.992188 115.664062 -96.660156 123.625 -92.296875 C 131.582031 -87.929688 137.84375 -82.316406 142.40625 -75.453125 C 146.976562 -68.585938 149.265625 -60.242188 149.265625 -50.421875 C 149.210938 -34.273438 143.164062 -21.414062 131.125 -11.84375 C 119.09375 -2.28125 102.300781 2.5 80.75 2.5 C 59.320312 2.5 42.226562 -2.378906 29.46875 -12.140625 C 16.71875 -21.910156 10.113281 -36.335938 9.65625 -55.421875 L 45.765625 -55.421875 C 46.390625 -46.566406 49.875 -39.910156 56.21875 -35.453125 C 62.570312 -31.003906 70.609375 -28.78125 80.328125 -28.78125 C 89.804688 -28.78125 97.375 -30.789062 103.03125 -34.8125 C 108.6875 -38.832031 111.546875 -44.0625 111.609375 -50.5 C 111.546875 -56.476562 108.925781 -61.078125 103.75 -64.296875 C 98.582031 -67.515625 91.203125 -70.269531 81.609375 -72.5625 L 62.390625 -77.390625 C 47.515625 -80.953125 35.765625 -86.609375 27.140625 -94.359375 C 18.523438 -102.117188 14.25 -112.492188 14.3125 -125.484375 C 14.25 -136.171875 17.101562 -145.519531 22.875 -153.53125 C 28.65625 -161.550781 36.597656 -167.785156 46.703125 -172.234375 C 56.816406 -176.679688 68.3125 -178.90625 81.1875 -178.90625 C 94.28125 -178.90625 105.722656 -176.664062 115.515625 -172.1875 C 125.316406 -167.707031 132.945312 -161.472656 138.40625 -153.484375 C 143.863281 -145.503906 146.679688 -136.253906 146.859375 -125.734375 Z M 111.09375 -125.734375 "/></g></g></g><g fill="#ffffff" fill-opacity="1"><g transform="translate(297.737764, 275.624982)"><g><path d="M 36.109375 2.234375 C 30.421875 2.234375 25.535156 0.222656 21.453125 -3.796875 C 17.378906 -7.816406 15.367188 -12.695312 15.421875 -18.4375 C 15.367188 -24.070312 17.378906 -28.898438 21.453125 -32.921875 C 25.535156 -36.941406 30.421875 -38.953125 36.109375 -38.953125 C 41.628906 -38.953125 46.441406 -36.941406 50.546875 -32.921875 C 54.648438 -28.898438 56.734375 -24.070312 56.796875 -18.4375 C 56.734375 -12.695312 54.648438 -7.816406 50.546875 -3.796875 C 46.441406 0.222656 41.628906 2.234375 36.109375 2.234375 Z M 36.109375 2.234375 "/></g></g></g></svg>